{
  "accessors": [
    {
      "bufferView": 2,
      "componentType": 5126,
      "count": 65532,
      "max": [
        1.531404972076416,
        5.4031610488891602,
        38.417758941650391
      ],
      "min": [
        -14.78526782989502,
        -0.57366400957107544,
        12.154034614562988
      ],
      "type": "VEC3"
    },
    {
      "bufferView": 2,
      "byteOffset": 786384,
      "componentType": 5126,
      "count": 65532,
      "max": [
        0.99991434812545776,
        0.99993610382080078,
        0.99989801645278931
      ],
      "min": [
        -0.99998277425765991,
        -0.99986714124679565,
        -0.99990522861480713
      ],
      "type": "VEC3"
    },
    {
      "bufferView": 1,
      "componentType": 5126,
      "count": 65532,
      "max": [
        1.2007410526275635,
        1.4039210081100464
      ],
      "min": [
        0.11243399977684021,
        0.03233100101351738
      ],
      "type": "VEC2"
    },
    {
      "bufferView": 0,
      "componentType": 5125,
      "count": 361938,
      "max": [
        65531
      ],
      "min": [
        0
      ],
      "type": "SCALAR"
    },
    {
      "bufferView": 2,
      "byteOffset": 1572768,
      "componentType": 5126,
      "count": 65532,
      "max": [
        -0.03302299976348877,
        16.646718978881836,
        33.072982788085938
      ],
      "min": [
        -14.783546447753906,
        0.94389498233795166,
        14.223119735717773
      ],
      "type": "VEC3"
    },
    {
      "bufferView": 2,
      "byteOffset": 2359152,
      "componentType": 5126,
      "count": 65532,
      "max": [
        0.99960166215896606,
        0.99979662895202637,
        0.99991101026535034
      ],
      "min": [
        -0.99999386072158813,
        -0.99994534254074097,
        -0.99999690055847168
      ],
      "type": "VEC3"
    },
    {
      "bufferView": 1,
      "byteOffset": 524256,
      "componentType": 5126,
      "count": 65532,
      "max": [
        0.54988497495651245,
        0.88491702079772949
      ],
      "min": [
        0.11522600054740906,
        0.32716301083564758
      ],
      "type": "VEC2"
    },
    {
      "bufferView": 0,
      "byteOffset": 1447752,
      "componentType": 5125,
      "count": 348198,
      "max": [
        65531
      ],
      "min": [
        0
      ],
      "type": "SCALAR"
    },
    {
      "bufferView": 2,
      "byteOffset": 3145536,
      "componentType": 5126,
      "count": 65532,
      "max": [
        15.080595970153809,
        7.9594540596008301,
        33.072921752929688
      ],
      "min": [
        -15.362880706787109,
        -13.271195411682129,
        1.4888800382614136
      ],
      "type": "VEC3"
    },
    {
      "bufferView": 2,
      "byteOffset": 3931920,
      "componentType": 5126,
      "count": 65532,
      "max": [
        0.99999290704727173,
        0.99996989965438843,
        0.9999542236328125
      ],
      "min": [
        -0.99997252225875854,
        -0.99999153614044189,
        -0.99999690055847168
      ],
      "type": "VEC3"
    },
    {
      "bufferView": 1,
      "byteOffset": 1048512,
      "componentType": 5126,
      "count": 65532,
      "max": [
        0.6861109733581543,
        0.95902401208877563
      ],
      "min": [
        0.010870000347495079,
        0.017727000638842583
      ],
      "type": "VEC2"
    },
    {
      "bufferView": 0,
      "byteOffset": 2840544,
      "componentType": 5125,
      "count": 373230,
      "max": [
        65531
      ],
      "min": [
        0
      ],
      "type": "SCALAR"
    },
    {
      "bufferView": 2,
      "byteOffset": 4718304,
      "componentType": 5126,
      "count": 61424,
      "max": [
        15.079590797424316,
        14.479814529418945,
        38.316070556640625
      ],
      "min": [
        -12.819329261779785,
        -13.283405303955078,
        1.4888800382614136
      ],
      "type": "VEC3"
    },
    {
      "bufferView": 2,
      "byteOffset": 5455392,
      "componentType": 5126,
      "count": 61424,
      "max": [
        0.99998676776885986,
        0.99992722272872925,
        0.99995225667953491
      ],
      "min": [
        -0.99999326467514038,
        -0.99997949600219727,
        -0.99939566850662231
      ],
      "type": "VEC3"
    },
    {
      "bufferView": 1,
      "byteOffset": 1572768,
      "componentType": 5126,
      "count": 61424,
      "max": [
        0.97530001401901245,
        0.98211002349853516
      ],
      "min": [
        0.010243000462651253,
        0.017612000927329063
      ],
      "type": "VEC2"
    },
    {
      "bufferView": 0,
      "byteOffset": 4333464,
      "componentType": 5125,
      "count": 336678,
      "max": [
        61423
      ],
      "min": [
        0
      ],
      "type": "SCALAR"
    },
    {
      "bufferView": 2,
      "byteOffset": 6192480,
      "componentType": 5126,
      "count": 65532,
      "max": [
        11.973594665527344,
        15.549838066101074,
        35.550868988037109
      ],
      "min": [
        -12.030329704284668,
        -10.61508846282959,
        11.285303115844727
      ],
      "type": "VEC3"
    },
    {
      "bufferView": 2,
      "byteOffset": 6978864,
      "componentType": 5126,
      "count": 65532,
      "max": [
        0.99998557567596436,
        0.99998277425765991,
        0.99987989664077759
      ],
      "min": [
        -0.99991446733474731,
        -0.99995714426040649,
        -0.99997299909591675
      ],
      "type": "VEC3"
    },
    {
      "bufferView": 1,
      "byteOffset": 2064160,
      "componentType": 5126,
      "count": 65532,
      "max": [
        0.98782998323440552,
        0.97769999504089355
      ],
      "min": [
        0.014945999719202518,
        0.017113000154495239
      ],
      "type": "VEC2"
    },
    {
      "bufferView": 0,
      "byteOffset": 5680176,
      "componentType": 5125,
      "count": 363246,
      "max": [
        65531
      ],
      "min": [
        0
      ],
      "type": "SCALAR"
    },
    {
      "bufferView": 2,
      "byteOffset": 7765248,
      "componentType": 5126,
      "count": 65532,
      "max": [
        12.254219055175781,
        16.738138198852539,
        35.223312377929688
      ],
      "min": [
        -11.329334259033203,
        -8.7188987731933594,
        12.038887977600098
      ],
      "type": "VEC3"
    },
    {
      "bufferView": 2,
      "byteOffset": 8551632,
      "componentType": 5126,
      "count": 65532,
      "max": [
        0.99997663497924805,
        0.99995261430740356,
        0.99999946355819702
      ],
      "min": [
        -0.9999852180480957,
        -0.99989724159240723,
        -0.99997937679290771
      ],
      "type": "VEC3"
    },
    {
      "bufferView": 1,
      "byteOffset": 2588416,
      "componentType": 5126,
      "count": 65532,
      "max": [
        0.98986202478408813,
        0.99277198314666748
      ],
      "min": [
        0.020682999864220619,
        0.016540000215172768
      ],
      "type": "VEC2"
    },
    {
      "bufferView": 0,
      "byteOffset": 7133160,
      "componentType": 5125,
      "count": 370431,
      "max": [
        65531
      ],
      "min": [
        0
      ],
      "type": "SCALAR"
    },
    {
      "bufferView": 2,
      "byteOffset": 9338016,
      "componentType": 5126,
      "count": 36265,
      "max": [
        12.4127197265625,
        12.314380645751953,
        35.453521728515625
      ],
      "min": [
        -11.688741683959961,
        -8.2763557434082031,
        12.183805465698242
      ],
      "type": "VEC3"
    },
    {
      "bufferView": 2,
      "byteOffset": 9773196,
      "componentType": 5126,
      "count": 36265,
      "max": [
        0.99997824430465698,
        0.99976587295532227,
        0.99999785423278809
      ],
      "min": [
        -0.9999614953994751,
        -0.999958336353302,
        -0.9998396635055542
      ],
      "type": "VEC3"
    },
    {
      "bufferView": 1,
      "byteOffset": 3112672,
      "componentType": 5126,
      "count": 36265,
      "max": [
        0.98926597833633423,
        0.98416197299957275
      ],
      "min": [
        0.014945999719202518,
        0.036129999905824661
      ],
      "type": "VEC2"
    },
    {
      "bufferView": 0,
      "byteOffset": 8614884,
      "componentType": 5125,
      "count": 199977,
      "max": [
        36264
      ],
      "min": [
        0
      ],
      "type": "SCALAR"
    },
    {
      "bufferView": 2,
      "byteOffset": 10208376,
      "componentType": 5126,
      "count": 65532,
      "max": [
        13.986118316650391,
        10.069192886352539,
        32.876972198486328
      ],
      "min": [
        -15.727724075317383,
        -10.673482894897461,
        -0.48584899306297302
      ],
      "type": "VEC3"
    },
    {
      "bufferView": 2,
      "byteOffset": 10994760,
      "componentType": 5126,
      "count": 65532,
      "max": [
        0.99946922063827515,
        0.99997735023498535,
        0.99958610534667969
      ],
      "min": [
        -0.99934345483779907,
        -0.99997764825820923,
        -0.99998098611831665
      ],
      "type": "VEC3"
    },
    {
      "bufferView": 1,
      "byteOffset": 3402792,
      "componentType": 5126,
      "count": 65532,
      "max": [
        0.95663702487945557,
        0.9885600209236145
      ],
      "min": [
        0.060929000377655029,
        0.013687999919056892
      ],
      "type": "VEC2"
    },
    {
      "bufferView": 0,
      "byteOffset": 9414792,
      "componentType": 5125,
      "count": 350505,
      "max": [
        65531
      ],
      "min": [
        0
      ],
      "type": "SCALAR"
    },
    {
      "bufferView": 2,
      "byteOffset": 11781144,
      "componentType": 5126,
      "count": 65532,
      "max": [
        13.98609733581543,
        10.083931922912598,
        32.883956909179688
      ],
      "min": [
        -15.727724075317383,
        -10.569326400756836,
        0.080949999392032623
      ],
      "type": "VEC3"
    },
    {
      "bufferView": 2,
      "byteOffset": 12567528,
      "componentType": 5126,
      "count": 65532,
      "max": [
        0.99996000528335571,
        1,
        1
      ],
      "min": [
        -0.99993646144866943,
        -0.99998325109481812,
        -0.99907410144805908
      ],
      "type": "VEC3"
    },
    {
      "bufferView": 1,
      "byteOffset": 3927048,
      "componentType": 5126,
      "count": 65532,
      "max": [
        0.92430901527404785,
        0.92139500379562378
      ],
      "min": [
        0.066629000008106232,
        0.039983000606298447
      ],
      "type": "VEC2"
    },
    {
      "bufferView": 0,
      "byteOffset": 10816812,
      "componentType": 5125,
      "count": 317580,
      "max": [
        65531
      ],
      "min": [
        0
      ],
      "type": "SCALAR"
    },
    {
      "bufferView": 2,
      "byteOffset": 13353912,
      "componentType": 5126,
      "count": 57417,
      "max": [
        13.945788383483887,
        10.059557914733887,
        32.878662109375
      ],
      "min": [
        -15.603705406188965,
        -10.673482894897461,
        -0.48584899306297302
      ],
      "type": "VEC3"
    },
    {
      "bufferView": 2,
      "byteOffset": 14042916,
      "componentType": 5126,
      "count": 57417,
      "max": [
        0.99998438358306885,
        1,
        0.99948352575302124
      ],
      "min": [
        -0.99993646144866943,
        -0.99998325109481812,
        -0.99988573789596558
      ],
      "type": "VEC3"
    },
    {
      "bufferView": 1,
      "byteOffset": 4451304,
      "componentType": 5126,
      "count": 57417,
      "max": [
        0.91815400123596191,
        0.96256101131439209
      ],
      "min": [
        0.067685000598430634,
        0.016078000888228416
      ],
      "type": "VEC2"
    },
    {
      "bufferView": 0,
      "byteOffset": 12087132,
      "componentType": 5125,
      "count": 231903,
      "max": [
        57416
      ],
      "min": [
        0
      ],
      "type": "SCALAR"
    },
    {
      "bufferView": 2,
      "byteOffset": 14731920,
      "componentType": 5126,
      "count": 8791,
      "max": [
        5.3488740921020508,
        -2.9147329330444336,
        25.428668975830078
      ],
      "min": [
        -5.3488740921020508,
        -7.6333627700805664,
        20.712564468383789
      ],
      "type": "VEC3"
    },
    {
      "bufferView": 2,
      "byteOffset": 14837412,
      "componentType": 5126,
      "count": 8791,
      "max": [
        0.99994802474975586,
        0.99987810850143433,
        0.9993632435798645
      ],
      "min": [
        -0.99994802474975586,
        -0.99954009056091309,
        -0.99996060132980347
      ],
      "type": "VEC3"
    },
    {
      "bufferView": 1,
      "byteOffset": 4910640,
      "componentType": 5126,
      "count": 8791,
      "max": [
        0.99528998136520386,
        0.99804002046585083
      ],
      "min": [
        0.0019499999471008778,
        0.0019499999471008778
      ],
      "type": "VEC2"
    },
    {
      "bufferView": 0,
      "byteOffset": 13014744,
      "componentType": 5125,
      "count": 52284,
      "max": [
        8790
      ],
      "min": [
        0
      ],
      "type": "SCALAR"
    }
  ],
  "asset": {
    "extras": {
      "author": "nyancube (https://sketchfab.com/NG1506)",
      "license": "CC-BY-4.0 (http://creativecommons.org/licenses/by/4.0/)",
      "source": "https://sketchfab.com/3d-models/airpods-girl-11942ed5b5c74c039dc7e132f214e07a",
      "title": "Airpods Girl"
    },
    "generator": "Sketchfab-9.96.0",
    "version": "2.0"
  },
  "bufferViews": [
    {
      "buffer": 0,
      "byteLength": 13223880,
      "byteOffset": 0,
      "name": "floatBufferViews",
      "target": 34963
    },
    {
      "buffer": 0,
      "byteLength": 4980968,
      "byteOffset": 13223880,
      "byteStride": 8,
      "name": "floatBufferViews",
      "target": 34962
    },
    {
      "buffer": 0,
      "byteLength": 14942904,
      "byteOffset": 18204848,
      "byteStride": 12,
      "name": "floatBufferViews",
      "target": 34962
    }
  ],
  "buffers": [
    {
      "byteLength": 33147752,
      "uri": "scene.bin"
    }
  ],
  "extensionsUsed": [
    "KHR_materials_unlit"
  ],
  "images": [
    {
      "uri": "textures/EYES_baseColor.jpeg"
    },
    {
      "uri": "textures/SKIN_baseColor.jpeg"
    },
    {
      "uri": "textures/HAIR_baseColor.jpeg"
    },
    {
      "uri": "textures/TOYS_baseColor.jpeg"
    }
  ],
  "materials": [
    {
      "doubleSided": true,
      "extensions": {
        "KHR_materials_unlit": {}
      },
      "name": "EYES",
      "pbrMetallicRoughness": {
        "baseColorFactor": [
          1,
          1,
          1,
          1
        ],
        "baseColorTexture": {
          "index": 0,
          "texCoord": 0
        },
        "metallicFactor": 0,
        "roughnessFactor": 1
      }
    },
    {
      "doubleSided": true,
      "extensions": {
        "KHR_materials_unlit": {}
      },
      "name": "SKIN",
      "pbrMetallicRoughness": {
        "baseColorFactor": [
          1,
          1,
          1,
          1
        ],
        "baseColorTexture": {
          "index": 1,
          "texCoord": 0
        },
        "metallicFactor": 0,
        "roughnessFactor": 1
      }
    },
    {
      "doubleSided": true,
      "extensions": {
        "KHR_materials_unlit": {}
      },
      "name": "HAIR",
      "pbrMetallicRoughness": {
        "baseColorFactor": [
          1,
          1,
          1,
          1
        ],
        "baseColorTexture": {
          "index": 2,
          "texCoord": 0
        },
        "metallicFactor": 0,
        "roughnessFactor": 1
      }
    },
    {
      "doubleSided": true,
      "extensions": {
        "KHR_materials_unlit": {}
      },
      "name": "TOYS",
      "pbrMetallicRoughness": {
        "baseColorFactor": [
          1,
          1,
          1,
          1
        ],
        "baseColorTexture": {
          "index": 3,
          "texCoord": 0
        },
        "metallicFactor": 0,
        "roughnessFactor": 1
      }
    }
  ],
  "meshes": [
    {
      "name": "defaultMaterial",
      "primitives": [
        {
          "attributes": {
            "NORMAL": 1,
            "POSITION": 0,
            "TEXCOORD_0": 2
          },
          "indices": 3,
          "material": 3,
          "mode": 4
        }
      ]
    },
    {
      "name": "defaultMaterial",
      "primitives": [
        {
          "attributes": {
            "NORMAL": 5,
            "POSITION": 4,
            "TEXCOORD_0": 6
          },
          "indices": 7,
          "material": 3,
          "mode": 4
        }
      ]
    },
    {
      "name": "defaultMaterial",
      "primitives": [
        {
          "attributes": {
            "NORMAL": 9,
            "POSITION": 8,
            "TEXCOORD_0": 10
          },
          "indices": 11,
          "material": 3,
          "mode": 4
        }
      ]
    },
    {
      "name": "defaultMaterial",
      "primitives": [
        {
          "attributes": {
            "NORMAL": 13,
            "POSITION": 12,
            "TEXCOORD_0": 14
          },
          "indices": 15,
          "material": 3,
          "mode": 4
        }
      ]
    },
    {
      "name": "defaultMaterial",
      "primitives": [
        {
          "attributes": {
            "NORMAL": 17,
            "POSITION": 16,
            "TEXCOORD_0": 18
          },
          "indices": 19,
          "material": 2,
          "mode": 4
        }
      ]
    },
    {
      "name": "defaultMaterial",
      "primitives": [
        {
          "attributes": {
            "NORMAL": 21,
            "POSITION": 20,
            "TEXCOORD_0": 22
          },
          "indices": 23,
          "material": 2,
          "mode": 4
        }
      ]
    },
    {
      "name": "defaultMaterial",
      "primitives": [
        {
          "attributes": {
            "NORMAL": 25,
            "POSITION": 24,
            "TEXCOORD_0": 26
          },
          "indices": 27,
          "material": 2,
          "mode": 4
        }
      ]
    },
    {
      "name": "defaultMaterial",
      "primitives": [
        {
          "attributes": {
            "NORMAL": 29,
            "POSITION": 28,
            "TEXCOORD_0": 30
          },
          "indices": 31,
          "material": 1,
          "mode": 4
        }
      ]
    },
    {
      "name": "defaultMaterial",
      "primitives": [
        {
          "attributes": {
            "NORMAL": 33,
            "POSITION": 32,
            "TEXCOORD_0": 34
          },
          "indices": 35,
          "material": 1,
          "mode": 4
        }
      ]
    },
    {
      "name": "defaultMaterial",
      "primitives": [
        {
          "attributes": {
            "NORMAL": 37,
            "POSITION": 36,
            "TEXCOORD_0": 38
          },
          "indices": 39,
          "material": 1,
          "mode": 4
        }
      ]
    },
    {
      "name": "defaultMaterial",
      "primitives": [
        {
          "attributes": {
            "NORMAL": 41,
            "POSITION": 40,
            "TEXCOORD_0": 42
          },
          "indices": 43,
          "material": 0,
          "mode": 4
        }
      ]
    }
  ],
  "nodes": [
    {
      "children": [
        1
      ],
      "name": "RootNode (gltf orientation matrix)",
      "rotation": [
        -0.70710678118654746,
        -0,
        -0,
        0.70710678118654757
      ]
    },
    {
      "children": [
        2
      ],
      "name": "RootNode (model correction matrix)"
    },
    {
      "children": [
        3,
        8,
        12,
        16
      ],
      "matrix": [
        1,
        0,
        0,
        0,
        0,
        -4.3711390063094768e-08,
        0.999999999999999,
        0,
        0,
        -0.999999999999999,
        -4.3711390063094768e-08,
        0,
        0,
        0,
        0,
        1
      ],
      "name": "Collada visual scene group"
    },
    {
      "children": [
        4,
        5,
        6,
        7
      ],
      "matrix": [
        1,
        0,
        0,
        0,
        0,
        0,
        -1,
        0,
        0,
        1,
        0,
        0,
        0,
        0,
        0,
        1
      ],
      "name": "polySurface505"
    },
    {
      "mesh": 0,
      "name": "defaultMaterial"
    },
    {
      "mesh": 1,
      "name": "defaultMaterial"
    },
    {
      "mesh": 2,
      "name": "defaultMaterial"
    },
    {
      "mesh": 3,
      "name": "defaultMaterial"
    },
    {
      "children": [
        9,
        10,
        11
      ],
      "matrix": [
        1,
        0,
        0,
        0,
        0,
        0,
        -1,
        0,
        0,
        1,
        0,
        0,
        0,
        0,
        0,
        1
      ],
      "name": "polySurface480"
    },
    {
      "mesh": 4,
      "name": "defaultMaterial"
    },
    {
      "mesh": 5,
      "name": "defaultMaterial"
    },
    {
      "mesh": 6,
      "name": "defaultMaterial"
    },
    {
      "children": [
        13,
        14,
        15
      ],
      "matrix": [
        1,
        0,
        0,
        0,
        0,
        0,
        -1,
        0,
        0,
        1,
        0,
        0,
        0,
        0,
        0,
        1
      ],
      "name": "head1:Group663"
    },
    {
      "mesh": 7,
      "name": "defaultMaterial"
    },
    {
      "mesh": 8,
      "name": "defaultMaterial"
    },
    {
      "mesh": 9,
      "name": "defaultMaterial"
    },
    {
      "children": [
        17
      ],
      "matrix": [
        1,
        0,
        0,
        0,
        0,
        0,
        -1,
        0,
        0,
        1,
        0,
        0,
        0,
        0,
        0,
        1
      ],
      "name": "head1:Group27029"
    },
    {
      "mesh": 10,
      "name": "defaultMaterial"
    }
  ],
  "samplers": [
    {
      "magFilter": 9729,
      "minFilter": 9987,
      "wrapS": 10497,
      "wrapT": 10497
    }
  ],
  "scene": 0,
  "scenes": [
    {
      "name": "OSG_Scene",
      "nodes": [
        0
      ]
    }
  ],
  "textures": [
    {
      "sampler": 0,
      "source": 0
    },
    {
      "sampler": 0,
      "source": 1
    },
    {
      "sampler": 0,
      "source": 2
    },
    {
      "sampler": 0,
      "source": 3
    }
  ]
}

